<svg
                width="200"
                height="300"
                viewBox="0 0 600 200"
                xmlns="http://www.w3.org/2000/svg"
                className="hover:cursor-pointer"
              >
                <path
                  d="M110,70 C95,70 80,85 80,105 C80,125 95,140 110,140 L140,140"
                  fill="none"
                  stroke="#F5F5F5"
                  strokeWidth="24"
                  strokeLinecap="round"
                />

                <path
                  d="M160,87 C170,75 190,75 200,85 C210,95 210,105 200,115 L190,120 C180,130 180,140 190,150 C200,160 220,160 230,147"
                  fill="none"
                  stroke="#F5F5F5"
                  strokeWidth="24"
                  strokeLinecap="round"
                />

                <path
                  d="M250,70 L250,140 M250,85 C270,85 280,95 280,105 C280,115 270,125 250,125"
                  fill="none"
                  stroke="#F5F5F5"
                  strokeWidth="24"
                  strokeLinecap="round"
                />

                <path
                  d="M300,70 L300,140 M300,100 C300,100 310,90 320,90 C330,90 340,100 340,110 L340,140"
                  fill="none"
                  stroke="#F5F5F5"
                  strokeWidth="24"
                  strokeLinecap="round"
                />

                <path
                  d="M390,105 C390,125 375,140 360,140 C345,140 330,125 330,105 C330,85 345,70 360,70 C375,70 390,85 390,105 z M330,105 L390,105"
                  fill="none"
                  stroke="#F5F5F5"
                  strokeWidth="24"
                  strokeLinecap="round"
                />

                <circle cx="220" cy="50" r="12" fill="#1A2A2D" />
              </svg>